<mxfile host="app.diagrams.net" agent="Mozilla/5.0 (Windows NT 10.0; Win64; x64) AppleWebKit/537.36 (KHTML, like Gecko) Chrome/138.0.0.0 Safari/537.36 Edg/138.0.0.0" version="28.1.1">
  <diagram name="第 1 页" id="pIKOWr3wA6XIwj2baS32">
    <mxGraphModel dx="1053" dy="706" grid="1" gridSize="10" guides="1" tooltips="1" connect="1" arrows="1" fold="1" page="1" pageScale="1" pageWidth="2009" pageHeight="827" math="0" shadow="0">
      <root>
        <mxCell id="0" />
        <mxCell id="1" parent="0" />
        <mxCell id="crVc_9CIVtoh6Q2KUuG3-3" value="" style="rounded=1;whiteSpace=wrap;html=1;fillColor=#dae8fc;strokeColor=#6c8ebf;strokeWidth=2;" parent="1" vertex="1">
          <mxGeometry x="80" y="130" width="860" height="150" as="geometry" />
        </mxCell>
        <mxCell id="crVc_9CIVtoh6Q2KUuG3-4" value="&lt;font style=&quot;font-size: 18px; color: light-dark(rgb(119, 142, 187), rgb(43, 130, 218));&quot;&gt;&lt;b style=&quot;&quot;&gt;Context&lt;/b&gt;&lt;/font&gt;" style="text;html=1;align=center;verticalAlign=middle;resizable=0;points=[];autosize=1;strokeColor=none;fillColor=none;" parent="1" vertex="1">
          <mxGeometry x="85" y="130" width="90" height="40" as="geometry" />
        </mxCell>
        <mxCell id="crVc_9CIVtoh6Q2KUuG3-11" value="" style="rounded=1;whiteSpace=wrap;html=1;fillColor=#f8cecc;strokeColor=#b85450;strokeWidth=2;arcSize=11;" parent="1" vertex="1">
          <mxGeometry x="80" y="330" width="280" height="290" as="geometry" />
        </mxCell>
        <mxCell id="crVc_9CIVtoh6Q2KUuG3-13" value="" style="group" parent="1" vertex="1" connectable="0">
          <mxGeometry x="100" y="170" width="208" height="90" as="geometry" />
        </mxCell>
        <mxCell id="crVc_9CIVtoh6Q2KUuG3-6" value="" style="rounded=0;whiteSpace=wrap;html=1;fillColor=#f5f5f5;fontColor=#333333;strokeColor=#666666;" parent="crVc_9CIVtoh6Q2KUuG3-13" vertex="1">
          <mxGeometry x="5" width="190" height="90" as="geometry" />
        </mxCell>
        <mxCell id="crVc_9CIVtoh6Q2KUuG3-7" value="&amp;lt;figure&amp;gt;" style="rounded=0;whiteSpace=wrap;html=1;" parent="crVc_9CIVtoh6Q2KUuG3-13" vertex="1">
          <mxGeometry x="15" y="12.5" width="60" height="45" as="geometry" />
        </mxCell>
        <mxCell id="crVc_9CIVtoh6Q2KUuG3-8" value="Observation" style="text;html=1;align=center;verticalAlign=middle;resizable=0;points=[];autosize=1;strokeColor=none;fillColor=none;" parent="crVc_9CIVtoh6Q2KUuG3-13" vertex="1">
          <mxGeometry y="57.5" width="90" height="30" as="geometry" />
        </mxCell>
        <mxCell id="crVc_9CIVtoh6Q2KUuG3-9" value="success rate: 1/10" style="text;html=1;align=center;verticalAlign=middle;resizable=0;points=[];autosize=1;strokeColor=none;fillColor=none;" parent="crVc_9CIVtoh6Q2KUuG3-13" vertex="1">
          <mxGeometry x="75" y="10" width="120" height="30" as="geometry" />
        </mxCell>
        <mxCell id="crVc_9CIVtoh6Q2KUuG3-10" value="&amp;nbsp;difficulty factors:&lt;div&gt;&lt;span style=&quot;white-space: pre;&quot;&gt;&#x9;&lt;/span&gt;1. distance: 5.1&lt;br&gt;&lt;/div&gt;&lt;div&gt;&lt;span style=&quot;white-space: pre;&quot;&gt;&#x9;&lt;/span&gt;2. lighting: 10&lt;br&gt;&lt;/div&gt;" style="text;html=1;align=left;verticalAlign=middle;resizable=0;points=[];autosize=1;strokeColor=none;fillColor=none;" parent="crVc_9CIVtoh6Q2KUuG3-13" vertex="1">
          <mxGeometry x="78" y="25.5" width="130" height="60" as="geometry" />
        </mxCell>
        <mxCell id="crVc_9CIVtoh6Q2KUuG3-14" value="" style="group" parent="1" vertex="1" connectable="0">
          <mxGeometry x="308" y="170" width="208" height="90" as="geometry" />
        </mxCell>
        <mxCell id="crVc_9CIVtoh6Q2KUuG3-15" value="" style="rounded=0;whiteSpace=wrap;html=1;fillColor=#f5f5f5;fontColor=#333333;strokeColor=#666666;" parent="crVc_9CIVtoh6Q2KUuG3-14" vertex="1">
          <mxGeometry x="5" width="190" height="90" as="geometry" />
        </mxCell>
        <mxCell id="crVc_9CIVtoh6Q2KUuG3-16" value="&amp;lt;figure&amp;gt;" style="rounded=0;whiteSpace=wrap;html=1;" parent="crVc_9CIVtoh6Q2KUuG3-14" vertex="1">
          <mxGeometry x="15" y="12.5" width="60" height="45" as="geometry" />
        </mxCell>
        <mxCell id="crVc_9CIVtoh6Q2KUuG3-17" value="Observation" style="text;html=1;align=center;verticalAlign=middle;resizable=0;points=[];autosize=1;strokeColor=none;fillColor=none;" parent="crVc_9CIVtoh6Q2KUuG3-14" vertex="1">
          <mxGeometry y="57.5" width="90" height="30" as="geometry" />
        </mxCell>
        <mxCell id="crVc_9CIVtoh6Q2KUuG3-18" value="success rate: 1/10" style="text;html=1;align=center;verticalAlign=middle;resizable=0;points=[];autosize=1;strokeColor=none;fillColor=none;" parent="crVc_9CIVtoh6Q2KUuG3-14" vertex="1">
          <mxGeometry x="75" y="10" width="120" height="30" as="geometry" />
        </mxCell>
        <mxCell id="crVc_9CIVtoh6Q2KUuG3-19" value="&amp;nbsp;difficulty factors:&lt;div&gt;&lt;span style=&quot;white-space: pre;&quot;&gt;&#x9;&lt;/span&gt;1. distance: 5.1&lt;br&gt;&lt;/div&gt;&lt;div&gt;&lt;span style=&quot;white-space: pre;&quot;&gt;&#x9;&lt;/span&gt;2. lighting: 10&lt;br&gt;&lt;/div&gt;" style="text;html=1;align=left;verticalAlign=middle;resizable=0;points=[];autosize=1;strokeColor=none;fillColor=none;" parent="crVc_9CIVtoh6Q2KUuG3-14" vertex="1">
          <mxGeometry x="78" y="25.5" width="130" height="60" as="geometry" />
        </mxCell>
        <mxCell id="crVc_9CIVtoh6Q2KUuG3-20" value="" style="group" parent="1" vertex="1" connectable="0">
          <mxGeometry x="516" y="170" width="208" height="90" as="geometry" />
        </mxCell>
        <mxCell id="crVc_9CIVtoh6Q2KUuG3-21" value="" style="rounded=0;whiteSpace=wrap;html=1;fillColor=#f5f5f5;fontColor=#333333;strokeColor=#666666;" parent="crVc_9CIVtoh6Q2KUuG3-20" vertex="1">
          <mxGeometry x="5" width="190" height="90" as="geometry" />
        </mxCell>
        <mxCell id="crVc_9CIVtoh6Q2KUuG3-22" value="&amp;lt;figure&amp;gt;" style="rounded=0;whiteSpace=wrap;html=1;" parent="crVc_9CIVtoh6Q2KUuG3-20" vertex="1">
          <mxGeometry x="15" y="12.5" width="60" height="45" as="geometry" />
        </mxCell>
        <mxCell id="crVc_9CIVtoh6Q2KUuG3-23" value="Observation" style="text;html=1;align=center;verticalAlign=middle;resizable=0;points=[];autosize=1;strokeColor=none;fillColor=none;" parent="crVc_9CIVtoh6Q2KUuG3-20" vertex="1">
          <mxGeometry y="57.5" width="90" height="30" as="geometry" />
        </mxCell>
        <mxCell id="crVc_9CIVtoh6Q2KUuG3-24" value="success rate: 1/10" style="text;html=1;align=center;verticalAlign=middle;resizable=0;points=[];autosize=1;strokeColor=none;fillColor=none;" parent="crVc_9CIVtoh6Q2KUuG3-20" vertex="1">
          <mxGeometry x="75" y="10" width="120" height="30" as="geometry" />
        </mxCell>
        <mxCell id="crVc_9CIVtoh6Q2KUuG3-25" value="&amp;nbsp;difficulty factors:&lt;div&gt;&lt;span style=&quot;white-space: pre;&quot;&gt;&#x9;&lt;/span&gt;1. distance: 5.1&lt;br&gt;&lt;/div&gt;&lt;div&gt;&lt;span style=&quot;white-space: pre;&quot;&gt;&#x9;&lt;/span&gt;2. lighting: 10&lt;br&gt;&lt;/div&gt;" style="text;html=1;align=left;verticalAlign=middle;resizable=0;points=[];autosize=1;strokeColor=none;fillColor=none;" parent="crVc_9CIVtoh6Q2KUuG3-20" vertex="1">
          <mxGeometry x="78" y="25.5" width="130" height="60" as="geometry" />
        </mxCell>
        <mxCell id="crVc_9CIVtoh6Q2KUuG3-26" value="" style="group" parent="1" vertex="1" connectable="0">
          <mxGeometry x="725" y="170" width="208" height="90" as="geometry" />
        </mxCell>
        <mxCell id="crVc_9CIVtoh6Q2KUuG3-27" value="" style="rounded=0;whiteSpace=wrap;html=1;fillColor=#f5f5f5;fontColor=#333333;strokeColor=#666666;" parent="crVc_9CIVtoh6Q2KUuG3-26" vertex="1">
          <mxGeometry x="5" width="190" height="90" as="geometry" />
        </mxCell>
        <mxCell id="crVc_9CIVtoh6Q2KUuG3-28" value="&amp;lt;figure&amp;gt;" style="rounded=0;whiteSpace=wrap;html=1;" parent="crVc_9CIVtoh6Q2KUuG3-26" vertex="1">
          <mxGeometry x="15" y="12.5" width="60" height="45" as="geometry" />
        </mxCell>
        <mxCell id="crVc_9CIVtoh6Q2KUuG3-29" value="Observation" style="text;html=1;align=center;verticalAlign=middle;resizable=0;points=[];autosize=1;strokeColor=none;fillColor=none;" parent="crVc_9CIVtoh6Q2KUuG3-26" vertex="1">
          <mxGeometry y="57.5" width="90" height="30" as="geometry" />
        </mxCell>
        <mxCell id="crVc_9CIVtoh6Q2KUuG3-30" value="success rate: 1/10" style="text;html=1;align=center;verticalAlign=middle;resizable=0;points=[];autosize=1;strokeColor=none;fillColor=none;" parent="crVc_9CIVtoh6Q2KUuG3-26" vertex="1">
          <mxGeometry x="75" y="10" width="120" height="30" as="geometry" />
        </mxCell>
        <mxCell id="crVc_9CIVtoh6Q2KUuG3-31" value="&amp;nbsp;difficulty factors:&lt;div&gt;&lt;span style=&quot;white-space: pre;&quot;&gt;&#x9;&lt;/span&gt;1. distance: 5.1&lt;br&gt;&lt;/div&gt;&lt;div&gt;&lt;span style=&quot;white-space: pre;&quot;&gt;&#x9;&lt;/span&gt;2. lighting: 10&lt;br&gt;&lt;/div&gt;" style="text;html=1;align=left;verticalAlign=middle;resizable=0;points=[];autosize=1;strokeColor=none;fillColor=none;" parent="crVc_9CIVtoh6Q2KUuG3-26" vertex="1">
          <mxGeometry x="78" y="25.5" width="130" height="60" as="geometry" />
        </mxCell>
        <mxCell id="crVc_9CIVtoh6Q2KUuG3-55" value="" style="shape=stencil(tZXRjoIwEEW/pq+bluqafdx0d/+jYpXG2pIWFf/ewhRiEVhCIDGYmUtPbzsziihzGc8FSnCG6A9KEoKxf/r43om5y0VaQPLGreR7JUBxhTVncZeHIjCkzoSVRaXSX4S//TvVh7LUaO0h0mgXKS+6h3Gp/VpcAixs/4ii3PMvohA2mIQsSv6mYz+264DJSn5jbON+cb/LgWPHZK3CLQYm87GU+cxQc1O25+n5ZM1VH3rN2Gquxvu9HUYIszjstTOwKWVHY8WIG5jm1ChjfQK+691AYCCMXe5RKtWzvkpPWJ3z6mfkTWjki7mJfy6rn9yW/mqBQOJLfJAIUiYQbho5xKH5ShrkXZBDvJvkQUn9cohNfIo5iG1n2PAMxucCNugMRLcgrQ8S33gowFenIDguSHv0piLTPCjjxEhT+vxAX0K7w2wMjeLbxNVZ+OOtE08=);whiteSpace=wrap;html=1;strokeWidth=2;gradientColor=none;editable=1;movable=1;resizable=1;rotatable=1;deletable=1;locked=0;connectable=1;strokeColor=none;fillColor=light-dark(#778ebb, #2b82da);flipH=0;" parent="1" vertex="1">
          <mxGeometry x="240" y="280" width="540" height="110" as="geometry" />
        </mxCell>
        <mxCell id="crVc_9CIVtoh6Q2KUuG3-62" value="&lt;font style=&quot;font-size: 18px;&quot;&gt;&lt;b style=&quot;&quot;&gt;User Prompt&lt;/b&gt;&lt;/font&gt;" style="text;html=1;align=center;verticalAlign=middle;resizable=0;points=[];autosize=1;strokeColor=none;fillColor=none;fontColor=light-dark(#a95a54, #ededed);" parent="1" vertex="1">
          <mxGeometry x="85" y="330" width="130" height="40" as="geometry" />
        </mxCell>
        <mxCell id="crVc_9CIVtoh6Q2KUuG3-69" value="" style="group" parent="1" vertex="1" connectable="0">
          <mxGeometry x="99.99999999999999" y="390" width="130" height="171" as="geometry" />
        </mxCell>
        <mxCell id="crVc_9CIVtoh6Q2KUuG3-64" value="" style="rounded=0;whiteSpace=wrap;html=1;fillColor=#f5f5f5;fontColor=#333333;strokeColor=#666666;" parent="crVc_9CIVtoh6Q2KUuG3-69" vertex="1">
          <mxGeometry x="1.0000000000000142" width="110.47" height="171" as="geometry" />
        </mxCell>
        <mxCell id="crVc_9CIVtoh6Q2KUuG3-65" value="&amp;lt;figure&amp;gt;" style="rounded=0;whiteSpace=wrap;html=1;" parent="crVc_9CIVtoh6Q2KUuG3-69" vertex="1">
          <mxGeometry x="23.65000000000002" y="9.170000000000016" width="66.35" height="60.83" as="geometry" />
        </mxCell>
        <mxCell id="crVc_9CIVtoh6Q2KUuG3-66" value="Observation" style="text;html=1;align=center;verticalAlign=middle;resizable=0;points=[];autosize=1;strokeColor=none;fillColor=none;" parent="crVc_9CIVtoh6Q2KUuG3-69" vertex="1">
          <mxGeometry x="11.240000000000009" y="70.49666666666667" width="90" height="30" as="geometry" />
        </mxCell>
        <mxCell id="crVc_9CIVtoh6Q2KUuG3-68" value="&amp;nbsp;difficulty factors:&lt;div&gt;&lt;span style=&quot;white-space: pre;&quot;&gt;&#x9;&lt;/span&gt;1. distance: 5.1&lt;br&gt;&lt;/div&gt;&lt;div&gt;&lt;span style=&quot;white-space: pre;&quot;&gt;&#x9;&lt;/span&gt;2. lighting: 10&lt;br&gt;&lt;/div&gt;" style="text;html=1;align=left;verticalAlign=middle;resizable=0;points=[];autosize=1;strokeColor=none;fillColor=none;" parent="crVc_9CIVtoh6Q2KUuG3-69" vertex="1">
          <mxGeometry y="101" width="130" height="60" as="geometry" />
        </mxCell>
        <mxCell id="crVc_9CIVtoh6Q2KUuG3-73" value="" style="verticalLabelPosition=bottom;verticalAlign=top;html=1;shape=mxgraph.infographic.shadedCube;isoAngle=17.09;fillColor=#d5e8d4;strokeColor=#82b366;pointerEvents=0;align=center;fontFamily=Helvetica;fontSize=12;flipH=1;" parent="1" vertex="1">
          <mxGeometry x="445" y="400" width="130" height="180" as="geometry" />
        </mxCell>
        <mxCell id="crVc_9CIVtoh6Q2KUuG3-83" value="" style="group;rotation=0;strokeColor=none;direction=west;convertToSvg=0;" parent="1" vertex="1" connectable="0">
          <mxGeometry x="480" y="420" width="60" height="116" as="geometry" />
        </mxCell>
        <mxCell id="crVc_9CIVtoh6Q2KUuG3-79" value="&lt;span style=&quot;font-size: 10px;&quot;&gt;XXXX&lt;/span&gt;" style="rounded=1;whiteSpace=wrap;html=1;pointerEvents=0;align=center;verticalAlign=middle;fontFamily=Helvetica;fontSize=12;fillColor=#dae8fc;strokeColor=#6c8ebf;rotation=0;" parent="crVc_9CIVtoh6Q2KUuG3-83" vertex="1">
          <mxGeometry x="6" y="94" width="50" height="22" as="geometry" />
        </mxCell>
        <mxCell id="crVc_9CIVtoh6Q2KUuG3-76" value="&lt;font style=&quot;font-size: 17px;&quot;&gt;VLM&lt;/font&gt;" style="text;html=1;align=center;verticalAlign=middle;resizable=0;points=[];autosize=1;strokeColor=none;fillColor=none;fontFamily=Helvetica;fontSize=18;fontColor=default;fontStyle=1;rotation=0;" parent="crVc_9CIVtoh6Q2KUuG3-83" vertex="1">
          <mxGeometry width="60" height="40" as="geometry" />
        </mxCell>
        <mxCell id="crVc_9CIVtoh6Q2KUuG3-77" value="&lt;font style=&quot;font-size: 10px;&quot;&gt;GPT-4o&lt;/font&gt;" style="rounded=1;whiteSpace=wrap;html=1;pointerEvents=0;align=center;verticalAlign=middle;fontFamily=Helvetica;fontSize=12;fillColor=#dae8fc;strokeColor=#6c8ebf;rotation=0;" parent="crVc_9CIVtoh6Q2KUuG3-83" vertex="1">
          <mxGeometry x="6" y="36" width="50" height="22" as="geometry" />
        </mxCell>
        <mxCell id="crVc_9CIVtoh6Q2KUuG3-78" value="&lt;span style=&quot;font-size: 10px;&quot;&gt;Qwen-VL&lt;/span&gt;" style="rounded=1;whiteSpace=wrap;html=1;pointerEvents=0;align=center;verticalAlign=middle;fontFamily=Helvetica;fontSize=12;fillColor=#dae8fc;strokeColor=#6c8ebf;rotation=0;" parent="crVc_9CIVtoh6Q2KUuG3-83" vertex="1">
          <mxGeometry x="6" y="64" width="50" height="22" as="geometry" />
        </mxCell>
        <mxCell id="crVc_9CIVtoh6Q2KUuG3-148" value="" style="group" parent="1" vertex="1" connectable="0">
          <mxGeometry x="220" y="385" width="140" height="180" as="geometry" />
        </mxCell>
        <mxCell id="crVc_9CIVtoh6Q2KUuG3-70" value="" style="rounded=1;whiteSpace=wrap;html=1;pointerEvents=0;align=center;verticalAlign=top;fontFamily=Helvetica;fontSize=12;fontColor=default;fillColor=light-dark(#393939,#EDEDED);gradientColor=none;arcSize=4;strokeColor=none;fillStyle=auto;gradientDirection=west;" parent="crVc_9CIVtoh6Q2KUuG3-148" vertex="1">
          <mxGeometry width="130" height="180" as="geometry" />
        </mxCell>
        <mxCell id="crVc_9CIVtoh6Q2KUuG3-141" value="" style="group" parent="crVc_9CIVtoh6Q2KUuG3-148" vertex="1" connectable="0">
          <mxGeometry width="18.416666666666664" height="180" as="geometry" />
        </mxCell>
        <mxCell id="crVc_9CIVtoh6Q2KUuG3-139" value="" style="rounded=1;whiteSpace=wrap;html=1;pointerEvents=0;align=center;verticalAlign=top;fontFamily=Helvetica;fontSize=12;fontColor=default;fillColor=light-dark(#212121,#EDEDED);gradientColor=none;arcSize=28;strokeColor=none;fillStyle=auto;gradientDirection=west;" parent="crVc_9CIVtoh6Q2KUuG3-141" vertex="1">
          <mxGeometry width="18.416666666666664" height="180" as="geometry" />
        </mxCell>
        <mxCell id="crVc_9CIVtoh6Q2KUuG3-140" value="" style="rounded=1;whiteSpace=wrap;html=1;pointerEvents=0;align=center;verticalAlign=top;fontFamily=Helvetica;fontSize=12;fontColor=default;fillColor=light-dark(#212121,#EDEDED);gradientColor=none;arcSize=0;strokeColor=none;fillStyle=auto;gradientDirection=west;" parent="crVc_9CIVtoh6Q2KUuG3-141" vertex="1">
          <mxGeometry x="7.583333333333333" width="10.833333333333332" height="180" as="geometry" />
        </mxCell>
        <mxCell id="crVc_9CIVtoh6Q2KUuG3-147" value="" style="group" parent="crVc_9CIVtoh6Q2KUuG3-148" vertex="1" connectable="0">
          <mxGeometry x="108.33333333333333" y="2.454545454545454" width="17.333333333333332" height="3.2727272727272725" as="geometry" />
        </mxCell>
        <mxCell id="crVc_9CIVtoh6Q2KUuG3-144" value="" style="ellipse;whiteSpace=wrap;html=1;pointerEvents=0;align=center;verticalAlign=top;fontFamily=Helvetica;fontSize=12;fontColor=default;fillColor=#FFFF66;gradientColor=none;aspect=fixed;strokeColor=none;" parent="crVc_9CIVtoh6Q2KUuG3-147" vertex="1">
          <mxGeometry x="6.5" width="3.2727272727272725" height="3.2727272727272725" as="geometry" />
        </mxCell>
        <mxCell id="crVc_9CIVtoh6Q2KUuG3-145" value="" style="ellipse;whiteSpace=wrap;html=1;pointerEvents=0;align=center;verticalAlign=top;fontFamily=Helvetica;fontSize=12;fontColor=default;fillColor=#33FF33;gradientColor=none;aspect=fixed;strokeColor=none;" parent="crVc_9CIVtoh6Q2KUuG3-147" vertex="1">
          <mxGeometry x="13" width="3.2727272727272725" height="3.2727272727272725" as="geometry" />
        </mxCell>
        <mxCell id="crVc_9CIVtoh6Q2KUuG3-146" value="" style="ellipse;whiteSpace=wrap;html=1;pointerEvents=0;align=center;verticalAlign=top;fontFamily=Helvetica;fontSize=12;fontColor=default;fillColor=#FF3333;gradientColor=none;aspect=fixed;strokeColor=none;" parent="crVc_9CIVtoh6Q2KUuG3-147" vertex="1">
          <mxGeometry width="3.2727272727272725" height="3.2727272727272725" as="geometry" />
        </mxCell>
        <mxCell id="crVc_9CIVtoh6Q2KUuG3-72" value="What is the difficulty of the test case?" style="whiteSpace=wrap;html=1;pointerEvents=0;align=left;verticalAlign=top;fontFamily=Consolas;fontSize=11;fontColor=#FFFFFF;fillColor=none;gradientColor=none;strokeColor=none;" parent="crVc_9CIVtoh6Q2KUuG3-148" vertex="1">
          <mxGeometry x="30" y="11.454545454545455" width="80" height="49.09090909090909" as="geometry" />
        </mxCell>
        <mxCell id="crVc_9CIVtoh6Q2KUuG3-149" value="" style="shape=stencil(tZXRjoIwEEW/pq+bluqafdx0d/+jYpXG2pIWFf/ewhRiEVhCIDGYmUtPbzsziihzGc8FSnCG6A9KEoKxf/r43om5y0VaQPLGreR7JUBxhTVncZeHIjCkzoSVRaXSX4S//TvVh7LUaO0h0mgXKS+6h3Gp/VpcAixs/4ii3PMvohA2mIQsSv6mYz+264DJSn5jbON+cb/LgWPHZK3CLQYm87GU+cxQc1O25+n5ZM1VH3rN2Gquxvu9HUYIszjstTOwKWVHY8WIG5jm1ChjfQK+691AYCCMXe5RKtWzvkpPWJ3z6mfkTWjki7mJfy6rn9yW/mqBQOJLfJAIUiYQbho5xKH5ShrkXZBDvJvkQUn9cohNfIo5iG1n2PAMxucCNugMRLcgrQ8S33gowFenIDguSHv0piLTPCjjxEhT+vxAX0K7w2wMjeLbxNVZ+OOtE08=);whiteSpace=wrap;html=1;strokeWidth=2;gradientColor=none;editable=1;movable=1;resizable=1;rotatable=1;deletable=1;locked=0;connectable=1;strokeColor=none;fillColor=light-dark(#a95a54, #2b82da);flipH=0;direction=north;" parent="1" vertex="1">
          <mxGeometry x="360" y="407.25" width="80" height="135.5" as="geometry" />
        </mxCell>
        <mxCell id="hDEv1wbBDbdIeiEGGIjY-2" value="" style="group" vertex="1" connectable="0" parent="1">
          <mxGeometry x="690" y="435" width="240" height="205" as="geometry" />
        </mxCell>
        <mxCell id="hDEv1wbBDbdIeiEGGIjY-3" value="" style="rounded=0;whiteSpace=wrap;html=1;fillColor=#f5f5f5;fontColor=#333333;strokeColor=#666666;" vertex="1" parent="hDEv1wbBDbdIeiEGGIjY-2">
          <mxGeometry x="4.57" width="235.43" height="173.93939393939394" as="geometry" />
        </mxCell>
        <mxCell id="hDEv1wbBDbdIeiEGGIjY-4" value="&amp;lt;figure&amp;gt;" style="rounded=0;whiteSpace=wrap;html=1;" vertex="1" parent="hDEv1wbBDbdIeiEGGIjY-2">
          <mxGeometry x="167.59" y="25.159090909090914" width="54.81" height="49.69386363636364" as="geometry" />
        </mxCell>
        <mxCell id="hDEv1wbBDbdIeiEGGIjY-5" value="Observation" style="text;html=1;align=center;verticalAlign=middle;resizable=0;points=[];autosize=1;strokeColor=none;fillColor=none;" vertex="1" parent="hDEv1wbBDbdIeiEGGIjY-2">
          <mxGeometry x="150" y="74.85088383838385" width="90" height="30" as="geometry" />
        </mxCell>
        <mxCell id="hDEv1wbBDbdIeiEGGIjY-7" value="&amp;nbsp;difficulty factors:&lt;div&gt;&lt;span style=&quot;white-space: pre;&quot;&gt;&#x9;&lt;/span&gt;1. distance: 5.1&lt;br&gt;&lt;/div&gt;&lt;div&gt;&lt;span style=&quot;white-space: pre;&quot;&gt;&#x9;&lt;/span&gt;2. lighting: 10&lt;br&gt;&lt;/div&gt;" style="text;html=1;align=left;verticalAlign=middle;resizable=0;points=[];autosize=1;strokeColor=none;fillColor=none;" vertex="1" parent="hDEv1wbBDbdIeiEGGIjY-2">
          <mxGeometry x="130" y="91.11939393939394" width="130" height="60" as="geometry" />
        </mxCell>
        <mxCell id="hDEv1wbBDbdIeiEGGIjY-19" value="&lt;font style=&quot;font-size: 14px;&quot;&gt;difficulty level: 7&lt;/font&gt;" style="text;html=1;align=center;verticalAlign=middle;resizable=0;points=[];autosize=1;strokeColor=#82b366;fillColor=#d5e8d4;" vertex="1" parent="hDEv1wbBDbdIeiEGGIjY-2">
          <mxGeometry x="20.000000000000032" y="27.954545454545467" width="120" height="30" as="geometry" />
        </mxCell>
        <mxCell id="hDEv1wbBDbdIeiEGGIjY-23" value="&lt;span style=&quot;font-size: 14px;&quot;&gt;test result:&amp;nbsp;&amp;nbsp;&lt;/span&gt;&lt;span style=&quot;color: rgba(0, 0, 0, 0); font-family: monospace; font-size: 0px; text-align: start;&quot;&gt;&lt;span style=&quot;color: rgb(0, 0, 0); font-family: Consolas, Courier, monospace; font-size: 14px; text-wrap-mode: wrap;&quot;&gt;✔&lt;/span&gt;%3CmxGraphModel%3E%3Croot%3E%3CmxCell%20id%3D%220%22%2F%3E%3CmxCell%20id%3D%221%22%20parent%3D%220%22%2F%3E%3CmxCell%20id%3D%222%22%20value%3D%22%26lt%3Bfont%20style%3D%26quot%3Bfont-size%3A%2014px%3B%26quot%3B%26gt%3Bdifficulty%20level%3A%207%26lt%3B%2Ffont%26gt%3B%22%20style%3D%22text%3Bhtml%3D1%3Balign%3Dcenter%3BverticalAlign%3Dmiddle%3Bresizable%3D0%3Bpoints%3D%5B%5D%3Bautosize%3D1%3BstrokeColor%3D%2382b366%3BfillColor%3D%23d5e8d4%3B%22%20vertex%3D%221%22%20parent%3D%221%22%3E%3CmxGeometry%20x%3D%22710%22%20y%3D%22462.9545454545455%22%20width%3D%22120%22%20height%3D%2230%22%20as%3D%22geometry%22%2F%3E%3C%2FmxCell%3E%3C%2Froot%3E%3C%2FmxGraphModel%3E&lt;/span&gt;" style="text;html=1;align=center;verticalAlign=middle;resizable=0;points=[];autosize=1;strokeColor=#6c8ebf;fillColor=#dae8fc;" vertex="1" parent="hDEv1wbBDbdIeiEGGIjY-2">
          <mxGeometry x="15" y="91.12" width="110" height="30" as="geometry" />
        </mxCell>
        <mxCell id="hDEv1wbBDbdIeiEGGIjY-8" value="" style="verticalLabelPosition=bottom;verticalAlign=top;html=1;shape=mxgraph.infographic.shadedCube;isoAngle=17.09;fillColor=#dae8fc;strokeColor=#6c8ebf;pointerEvents=0;align=center;fontFamily=Helvetica;fontSize=12;flipH=1;" vertex="1" parent="1">
          <mxGeometry x="380" y="610" width="130" height="130" as="geometry" />
        </mxCell>
        <mxCell id="hDEv1wbBDbdIeiEGGIjY-9" value="&lt;font&gt;&lt;b&gt;Lab Test&lt;/b&gt;&lt;/font&gt;" style="text;html=1;align=center;verticalAlign=middle;resizable=0;points=[];autosize=1;strokeColor=none;fillColor=none;fontSize=19;" vertex="1" parent="1">
          <mxGeometry x="395" y="655" width="100" height="40" as="geometry" />
        </mxCell>
        <mxCell id="hDEv1wbBDbdIeiEGGIjY-10" value="" style="html=1;shadow=0;dashed=0;align=center;verticalAlign=middle;shape=mxgraph.arrows2.bendArrow;dy=9.55;dx=36.29;notch=0;arrowHead=43.57;rounded=1;flipV=1;fillColor=light-dark(#D2D2D2,#EDEDED);strokeColor=none;" vertex="1" parent="1">
          <mxGeometry x="150" y="565" width="220" height="135" as="geometry" />
        </mxCell>
        <mxCell id="hDEv1wbBDbdIeiEGGIjY-18" value="" style="html=1;shadow=0;dashed=0;align=center;verticalAlign=middle;shape=mxgraph.arrows2.arrow;dy=0.57;dx=37.34;notch=0;fillColor=light-dark(#8bb06f, #ededed);strokeColor=none;" vertex="1" parent="1">
          <mxGeometry x="590" y="457" width="110" height="43" as="geometry" />
        </mxCell>
        <mxCell id="hDEv1wbBDbdIeiEGGIjY-20" value="" style="html=1;shadow=0;dashed=0;align=center;verticalAlign=middle;shape=mxgraph.arrows2.bendArrow;dy=9.55;dx=36.29;notch=0;arrowHead=43.57;rounded=1;flipV=1;fillColor=light-dark(#778ebb, #EDEDED);strokeColor=none;direction=south;" vertex="1" parent="1">
          <mxGeometry x="516" y="560" width="264" height="117" as="geometry" />
        </mxCell>
      </root>
    </mxGraphModel>
  </diagram>
</mxfile>
